<mxfile host="65bd71144e">
    <diagram id="-DPmXS76Umg-Spe6nsbr" name="PrivateResolver Demo">
        <mxGraphModel dx="1646" dy="802" grid="1" gridSize="10" guides="1" tooltips="1" connect="1" arrows="1" fold="1" page="1" pageScale="1" pageWidth="1169" pageHeight="827" math="0" shadow="0">
            <root>
                <mxCell id="0"/>
                <mxCell id="1" parent="0"/>
                <mxCell id="A5Da7jHjknWkfX75Lmv2-71" style="edgeStyle=none;html=1;fillColor=#1ba1e2;strokeColor=#006EAF;exitX=0;exitY=0.75;exitDx=0;exitDy=0;entryX=0.052;entryY=0.512;entryDx=0;entryDy=0;entryPerimeter=0;" parent="1" source="12" target="A5Da7jHjknWkfX75Lmv2-42" edge="1">
                    <mxGeometry relative="1" as="geometry">
                        <mxPoint x="510" y="840" as="targetPoint"/>
                    </mxGeometry>
                </mxCell>
                <mxCell id="A5Da7jHjknWkfX75Lmv2-72" value="Virtual Network Link" style="edgeLabel;html=1;align=center;verticalAlign=middle;resizable=0;points=[];" parent="A5Da7jHjknWkfX75Lmv2-71" vertex="1" connectable="0">
                    <mxGeometry x="-0.0945" y="3" relative="1" as="geometry">
                        <mxPoint as="offset"/>
                    </mxGeometry>
                </mxCell>
                <mxCell id="A5Da7jHjknWkfX75Lmv2-77" style="edgeStyle=none;html=1;entryX=0.488;entryY=1.083;entryDx=0;entryDy=0;entryPerimeter=0;fillColor=#e51400;strokeColor=#B20000;" parent="1" source="A5Da7jHjknWkfX75Lmv2-42" target="A5Da7jHjknWkfX75Lmv2-33" edge="1">
                    <mxGeometry relative="1" as="geometry"/>
                </mxCell>
                <mxCell id="A5Da7jHjknWkfX75Lmv2-42" value="DNS Forwarding Ruleset&lt;br&gt;&lt;div style=&quot;&quot;&gt;Rule:&lt;/div&gt;*.onpremise.hhs.gov&lt;br&gt;10.0.2.10" style="html=1;verticalLabelPosition=bottom;align=left;labelBackgroundColor=#ffffff;verticalAlign=top;strokeWidth=2;strokeColor=#0080F0;shadow=0;dashed=0;shape=mxgraph.ios7.icons.forward;fillStyle=dots;fillColor=none;flipH=1;" parent="1" vertex="1">
                    <mxGeometry x="311.19" y="670" width="87.62" height="36.8" as="geometry"/>
                </mxCell>
                <mxCell id="A5Da7jHjknWkfX75Lmv2-79" style="edgeStyle=none;html=1;strokeColor=#B20000;" parent="1" source="A5Da7jHjknWkfX75Lmv2-43" target="A5Da7jHjknWkfX75Lmv2-32" edge="1">
                    <mxGeometry relative="1" as="geometry">
                        <Array as="points">
                            <mxPoint x="400" y="610"/>
                        </Array>
                    </mxGeometry>
                </mxCell>
                <mxCell id="A5Da7jHjknWkfX75Lmv2-80" value="Outbound &lt;br&gt;Endpoint" style="edgeLabel;html=1;align=center;verticalAlign=middle;resizable=0;points=[];" parent="A5Da7jHjknWkfX75Lmv2-79" vertex="1" connectable="0">
                    <mxGeometry x="-0.4872" y="-3" relative="1" as="geometry">
                        <mxPoint as="offset"/>
                    </mxGeometry>
                </mxCell>
                <mxCell id="A5Da7jHjknWkfX75Lmv2-82" style="edgeStyle=none;html=1;strokeColor=#006EAF;fillColor=#1ba1e2;entryX=0;entryY=1;entryDx=0;entryDy=0;" parent="1" source="A5Da7jHjknWkfX75Lmv2-43" target="A5Da7jHjknWkfX75Lmv2-26" edge="1">
                    <mxGeometry relative="1" as="geometry">
                        <mxPoint x="540" y="520" as="targetPoint"/>
                        <Array as="points">
                            <mxPoint x="540" y="610"/>
                        </Array>
                    </mxGeometry>
                </mxCell>
                <mxCell id="A5Da7jHjknWkfX75Lmv2-83" value="Inbound&lt;br&gt;Endpoint" style="edgeLabel;html=1;align=center;verticalAlign=middle;resizable=0;points=[];" parent="A5Da7jHjknWkfX75Lmv2-82" vertex="1" connectable="0">
                    <mxGeometry x="-0.4457" y="2" relative="1" as="geometry">
                        <mxPoint as="offset"/>
                    </mxGeometry>
                </mxCell>
                <mxCell id="A5Da7jHjknWkfX75Lmv2-43" value="DNS Private Resolver" style="aspect=fixed;html=1;points=[];align=center;image;fontSize=12;image=img/lib/azure2/networking/DNS_Private_Resolver.svg;dashed=1;labelBackgroundColor=none;fillStyle=dots;strokeColor=#000000;fillColor=none;" parent="1" vertex="1">
                    <mxGeometry x="440" y="580" width="68" height="60" as="geometry"/>
                </mxCell>
                <mxCell id="A5Da7jHjknWkfX75Lmv2-54" value="" style="group" parent="1" vertex="1" connectable="0">
                    <mxGeometry x="600" y="520" width="520" height="230" as="geometry"/>
                </mxCell>
                <mxCell id="12" value="OnPremise&lt;br&gt;10.0.2.0/24" style="rounded=0;whiteSpace=wrap;html=1;dashed=1;labelBackgroundColor=none;fillStyle=dots;strokeColor=#001DBC;fillColor=none;verticalAlign=bottom;align=left;fontColor=#ffffff;" parent="A5Da7jHjknWkfX75Lmv2-54" vertex="1">
                    <mxGeometry x="60" width="460" height="230" as="geometry"/>
                </mxCell>
                <mxCell id="2" value="VNet-Spoke-Application" style="aspect=fixed;html=1;points=[];align=center;image;fontSize=12;image=img/lib/azure2/networking/Virtual_Networks.svg;" parent="A5Da7jHjknWkfX75Lmv2-54" vertex="1">
                    <mxGeometry x="433" width="67" height="40" as="geometry"/>
                </mxCell>
                <mxCell id="18" value="Private subnet-VMSubnet" style="points=[[0,0],[0.25,0],[0.5,0],[0.75,0],[1,0],[1,0.25],[1,0.5],[1,0.75],[1,1],[0.75,1],[0.5,1],[0.25,1],[0,1],[0,0.75],[0,0.5],[0,0.25]];outlineConnect=0;gradientColor=none;html=1;whiteSpace=wrap;fontSize=12;fontStyle=0;container=1;pointerEvents=0;collapsible=0;recursiveResize=0;shape=mxgraph.aws4.group;grIcon=mxgraph.aws4.group_security_group;grStroke=0;strokeColor=#147EBA;fillColor=#E6F2F8;verticalAlign=top;align=left;spacingLeft=30;fontColor=#147EBA;dashed=0;labelBackgroundColor=none;fillStyle=dots;" parent="A5Da7jHjknWkfX75Lmv2-54" vertex="1">
                    <mxGeometry x="80" y="8.240000000000009" width="310" height="197.5" as="geometry"/>
                </mxCell>
                <mxCell id="20" value="vm01&lt;br&gt;Ubuntu 22.04&amp;nbsp;" style="aspect=fixed;html=1;points=[];align=center;image;fontSize=12;image=img/lib/azure2/compute/Virtual_Machine.svg;labelBackgroundColor=none;" parent="A5Da7jHjknWkfX75Lmv2-54" vertex="1">
                    <mxGeometry x="200.5" y="110" width="69" height="64" as="geometry"/>
                </mxCell>
                <mxCell id="A5Da7jHjknWkfX75Lmv2-66" value="*.bep.hhs.gov&lt;br&gt;(DNS Private Zone Link)" style="sketch=0;aspect=fixed;html=1;points=[];align=center;image;fontSize=12;image=img/lib/mscae/DNS_Private_Zones.svg;dashed=1;labelBackgroundColor=none;fillStyle=dots;strokeColor=#000000;fillColor=none;" parent="A5Da7jHjknWkfX75Lmv2-54" vertex="1">
                    <mxGeometry y="190" width="72" height="72" as="geometry"/>
                </mxCell>
                <mxCell id="A5Da7jHjknWkfX75Lmv2-23" value="Out" style="rounded=0;whiteSpace=wrap;html=1;dashed=1;labelBackgroundColor=none;fillStyle=dots;strokeColor=#007FFF;fillColor=none;verticalAlign=bottom;align=left;fontColor=#ffffff;" parent="1" vertex="1">
                    <mxGeometry x="260" y="270" width="860" height="225" as="geometry"/>
                </mxCell>
                <mxCell id="A5Da7jHjknWkfX75Lmv2-26" value="Private subnet-Dns-Inbound&lt;br&gt;10.0.0.0/28&lt;br&gt;&lt;span style=&quot;color: rgba(0, 0, 0, 0); font-family: monospace; font-size: 0px;&quot;&gt;%3CmxGraphModel%3E%3Croot%3E%3CmxCell%20id%3D%220%22%2F%3E%3CmxCell%20id%3D%221%22%20parent%3D%220%22%2F%3E%3CmxCell%20id%3D%222%22%20style%3D%22edgeStyle%3Dnone%3Bhtml%3D1%3BentryX%3D0.742%3BentryY%3D0.972%3BentryDx%3D0%3BentryDy%3D0%3BentryPerimeter%3D0%3BstrokeColor%3D%23006EAF%3BfillColor%3D%231ba1e2%3B%22%20edge%3D%221%22%20parent%3D%221%22%3E%3CmxGeometry%20relative%3D%221%22%20as%3D%22geometry%22%3E%3CmxPoint%20x%3D%22497.6457415735547%22%20y%3D%22550%22%20as%3D%22sourcePoint%22%2F%3E%3CmxPoint%20x%3D%22610.0040000000001%22%20y%3D%22407.44799999999987%22%20as%3D%22targetPoint%22%2F%3E%3C%2FmxGeometry%3E%3C%2FmxCell%3E%3C%2Froot%3E%3C%2FmxGraphModel%3E&lt;br&gt;1&lt;br&gt;&lt;/span&gt;" style="points=[[0,0],[0.25,0],[0.5,0],[0.75,0],[1,0],[1,0.25],[1,0.5],[1,0.75],[1,1],[0.75,1],[0.5,1],[0.25,1],[0,1],[0,0.75],[0,0.5],[0,0.25]];outlineConnect=0;gradientColor=none;html=1;whiteSpace=wrap;fontSize=12;fontStyle=0;container=1;pointerEvents=0;collapsible=0;recursiveResize=0;shape=mxgraph.aws4.group;grIcon=mxgraph.aws4.group_security_group;grStroke=0;strokeColor=#147EBA;fillColor=#E6F2F8;verticalAlign=top;align=left;spacingLeft=30;fontColor=#147EBA;dashed=0;labelBackgroundColor=none;fillStyle=dots;" parent="1" vertex="1">
                    <mxGeometry x="540" y="283.75" width="190" height="196.25" as="geometry"/>
                </mxCell>
                <mxCell id="A5Da7jHjknWkfX75Lmv2-32" value="Private subnet-Dns-Outbound&lt;br&gt;10.0.0.16/28" style="points=[[0,0],[0.25,0],[0.5,0],[0.75,0],[1,0],[1,0.25],[1,0.5],[1,0.75],[1,1],[0.75,1],[0.5,1],[0.25,1],[0,1],[0,0.75],[0,0.5],[0,0.25]];outlineConnect=0;gradientColor=none;html=1;whiteSpace=wrap;fontSize=12;fontStyle=0;container=1;pointerEvents=0;collapsible=0;recursiveResize=0;shape=mxgraph.aws4.group;grIcon=mxgraph.aws4.group_security_group;grStroke=0;strokeColor=#147EBA;fillColor=#E6F2F8;verticalAlign=top;align=left;spacingLeft=30;fontColor=#147EBA;dashed=0;labelBackgroundColor=none;fillStyle=dots;" parent="1" vertex="1">
                    <mxGeometry x="300" y="279.74" width="200" height="200.26" as="geometry"/>
                </mxCell>
                <mxCell id="A5Da7jHjknWkfX75Lmv2-40" value="Vnet Hub" style="aspect=fixed;html=1;points=[];align=center;image;fontSize=12;image=img/lib/azure2/networking/Virtual_Networks.svg;dashed=1;labelBackgroundColor=none;fillStyle=dots;strokeColor=#000000;fillColor=none;" parent="1" vertex="1">
                    <mxGeometry x="1030" y="270" width="67" height="40" as="geometry"/>
                </mxCell>
                <mxCell id="A5Da7jHjknWkfX75Lmv2-41" value="*.bep.hhs.gov&lt;br&gt;(DNS Private Zone Link)" style="sketch=0;aspect=fixed;html=1;points=[];align=center;image;fontSize=12;image=img/lib/mscae/DNS_Private_Zones.svg;dashed=1;labelBackgroundColor=none;fillStyle=dots;strokeColor=#000000;fillColor=none;" parent="1" vertex="1">
                    <mxGeometry x="210" y="338.74" width="72" height="72" as="geometry"/>
                </mxCell>
                <mxCell id="A5Da7jHjknWkfX75Lmv2-30" value="InBound Endpoint" style="aspect=fixed;html=1;points=[];align=center;image;fontSize=12;image=img/lib/azure2/networking/Service_Endpoint_Policies.svg;dashed=1;labelBackgroundColor=none;fillStyle=dots;strokeColor=#000000;fillColor=none;" parent="1" vertex="1">
                    <mxGeometry x="564" y="345.24" width="62" height="64" as="geometry"/>
                </mxCell>
                <mxCell id="A5Da7jHjknWkfX75Lmv2-85" style="edgeStyle=none;html=1;strokeColor=#B20000;rounded=0;" parent="1" source="A5Da7jHjknWkfX75Lmv2-33" edge="1">
                    <mxGeometry relative="1" as="geometry">
                        <mxPoint x="730" y="90" as="targetPoint"/>
                        <Array as="points">
                            <mxPoint x="355" y="90"/>
                        </Array>
                    </mxGeometry>
                </mxCell>
                <mxCell id="A5Da7jHjknWkfX75Lmv2-33" value="OutBound Endpoint" style="aspect=fixed;html=1;points=[];align=center;image;fontSize=12;image=img/lib/azure2/networking/Service_Endpoint_Policies.svg;dashed=1;labelBackgroundColor=none;fillStyle=dots;strokeColor=#000000;fillColor=none;" parent="1" vertex="1">
                    <mxGeometry x="324" y="345.24" width="62" height="64" as="geometry"/>
                </mxCell>
                <mxCell id="A5Da7jHjknWkfX75Lmv2-86" style="edgeStyle=none;html=1;strokeColor=#001DBC;entryX=0;entryY=0;entryDx=0;entryDy=0;rounded=0;fillColor=#0050ef;" parent="1" target="A5Da7jHjknWkfX75Lmv2-26" edge="1">
                    <mxGeometry relative="1" as="geometry">
                        <mxPoint x="730" y="120" as="sourcePoint"/>
                        <Array as="points">
                            <mxPoint x="540" y="120"/>
                        </Array>
                    </mxGeometry>
                </mxCell>
                <mxCell id="A5Da7jHjknWkfX75Lmv2-87" value="Conditional forwarder:&amp;nbsp;&lt;br&gt;&lt;div style=&quot;text-align: left;&quot;&gt;bep.hhs.gov&lt;/div&gt;&lt;div style=&quot;text-align: left;&quot;&gt;10.0.0.4&lt;/div&gt;" style="edgeLabel;html=1;align=center;verticalAlign=middle;resizable=0;points=[];" parent="A5Da7jHjknWkfX75Lmv2-86" vertex="1" connectable="0">
                    <mxGeometry x="-0.3671" y="2" relative="1" as="geometry">
                        <mxPoint as="offset"/>
                    </mxGeometry>
                </mxCell>
                <mxCell id="A5Da7jHjknWkfX75Lmv2-88" value="Vnet&lt;br&gt;Peering" style="edgeStyle=none;rounded=0;html=1;strokeColor=#001DBC;exitX=0;exitY=0.5;exitDx=0;exitDy=0;shape=link;fillColor=#0050ef;entryX=0.437;entryY=0.979;entryDx=0;entryDy=0;entryPerimeter=0;" parent="1" source="12" target="A5Da7jHjknWkfX75Lmv2-23" edge="1">
                    <mxGeometry relative="1" as="geometry">
                        <mxPoint x="580" y="492" as="targetPoint"/>
                        <Array as="points">
                            <mxPoint x="636" y="635"/>
                        </Array>
                    </mxGeometry>
                </mxCell>
                <mxCell id="A5Da7jHjknWkfX75Lmv2-58" value="OnPremise&lt;br&gt;10.0.2.0/24" style="rounded=0;whiteSpace=wrap;html=1;dashed=1;labelBackgroundColor=none;fillStyle=dots;strokeColor=#001DBC;fillColor=none;verticalAlign=bottom;align=left;fontColor=#ffffff;" parent="1" vertex="1">
                    <mxGeometry x="636" y="10" width="484" height="230" as="geometry"/>
                </mxCell>
                <mxCell id="A5Da7jHjknWkfX75Lmv2-59" value="VNet-Spoke-OnPremise" style="aspect=fixed;html=1;points=[];align=center;image;fontSize=12;image=img/lib/azure2/networking/Virtual_Networks.svg;" parent="1" vertex="1">
                    <mxGeometry x="1033" y="10" width="67" height="40" as="geometry"/>
                </mxCell>
                <mxCell id="A5Da7jHjknWkfX75Lmv2-61" value="Private subnet-VMSubnet&lt;br&gt;10.0.2.0/28" style="points=[[0,0],[0.25,0],[0.5,0],[0.75,0],[1,0],[1,0.25],[1,0.5],[1,0.75],[1,1],[0.75,1],[0.5,1],[0.25,1],[0,1],[0,0.75],[0,0.5],[0,0.25]];outlineConnect=0;gradientColor=none;html=1;whiteSpace=wrap;fontSize=12;fontStyle=0;container=1;pointerEvents=0;collapsible=0;recursiveResize=0;shape=mxgraph.aws4.group;grIcon=mxgraph.aws4.group_security_group;grStroke=0;strokeColor=#147EBA;fillColor=#E6F2F8;verticalAlign=top;align=left;spacingLeft=30;fontColor=#147EBA;dashed=0;labelBackgroundColor=none;fillStyle=dots;" parent="1" vertex="1">
                    <mxGeometry x="680" y="18.24000000000001" width="310" height="231.76" as="geometry"/>
                </mxCell>
                <mxCell id="A5Da7jHjknWkfX75Lmv2-63" value="DNS Server&lt;br&gt;Windows Server 2019&lt;br&gt;10.0..2.10" style="aspect=fixed;html=1;points=[];align=center;image;fontSize=12;image=img/lib/azure2/compute/Virtual_Machine.svg;labelBackgroundColor=none;" parent="A5Da7jHjknWkfX75Lmv2-61" vertex="1">
                    <mxGeometry x="50" y="60" width="69" height="64" as="geometry"/>
                </mxCell>
                <mxCell id="A5Da7jHjknWkfX75Lmv2-62" value="vm01&lt;br&gt;Ubuntu 22.04&amp;nbsp;" style="aspect=fixed;html=1;points=[];align=center;image;fontSize=12;image=img/lib/azure2/compute/Virtual_Machine.svg;labelBackgroundColor=none;" parent="A5Da7jHjknWkfX75Lmv2-61" vertex="1">
                    <mxGeometry x="220" y="60" width="69" height="64" as="geometry"/>
                </mxCell>
                <mxCell id="A5Da7jHjknWkfX75Lmv2-60" value="*.onpremise.hhs.gov" style="aspect=fixed;html=1;points=[];align=center;image;fontSize=12;image=img/lib/azure2/networking/DNS_Zones.svg;dashed=1;labelBackgroundColor=none;fillStyle=dots;strokeColor=#007FFF;fillColor=none;" parent="1" vertex="1">
                    <mxGeometry x="600" width="60" height="60" as="geometry"/>
                </mxCell>
                <mxCell id="A5Da7jHjknWkfX75Lmv2-89" value="&lt;h1&gt;Private Resolver Demo&lt;/h1&gt;&lt;p&gt;DNS Outbound&lt;/p&gt;&lt;p&gt;&lt;/p&gt;&lt;ul&gt;&lt;li&gt;Application Spoke VNET associates a DNS private resolver for all lookup of resources in Azure&lt;/li&gt;&lt;li&gt;&lt;br&gt;&lt;/li&gt;&lt;/ul&gt;&lt;p&gt;&lt;/p&gt;&lt;p&gt;&lt;br&gt;&lt;/p&gt;" style="text;html=1;strokeColor=none;fillColor=none;spacing=5;spacingTop=-20;whiteSpace=wrap;overflow=hidden;rounded=0;dashed=1;labelBackgroundColor=none;fillStyle=dots;" parent="1" vertex="1">
                    <mxGeometry x="20" y="18" width="280" height="120" as="geometry"/>
                </mxCell>
                <mxCell id="21" value="&lt;div style=&quot;&quot;&gt;&lt;span style=&quot;background-color: initial;&quot;&gt;&lt;font&gt;Private subnet&lt;/font&gt;&lt;/span&gt;&lt;/div&gt;&lt;div style=&quot;&quot;&gt;&lt;span style=&quot;background-color: initial;&quot;&gt;10.0.0.32/28&lt;/span&gt;&lt;/div&gt;" style="rounded=0;whiteSpace=wrap;html=1;strokeWidth=1;fillColor=none;container=1;movable=1;resizable=1;rotatable=1;deletable=1;editable=1;connectable=1;verticalAlign=bottom;align=left;dashed=1;strokeColor=#007FFF;fontColor=#007FFF;" vertex="1" parent="1">
                    <mxGeometry x="1180" y="250" width="240" height="200" as="geometry">
                        <mxRectangle x="1210" y="330" width="50" height="40" as="alternateBounds"/>
                    </mxGeometry>
                </mxCell>
                <mxCell id="A5Da7jHjknWkfX75Lmv2-36" value="vm01&lt;br&gt;Ubuntu 22.04&amp;nbsp;" style="aspect=fixed;html=1;points=[];align=center;image;fontSize=12;image=img/lib/azure2/compute/Virtual_Machine.svg;labelBackgroundColor=none;" parent="21" vertex="1">
                    <mxGeometry x="85.71428571428571" y="60" width="59.14285714285714" height="54.857142857142854" as="geometry"/>
                </mxCell>
            </root>
        </mxGraphModel>
    </diagram>
    <diagram name="old" id="nb-85bsSKg6Q3aCRK5n5">
        <mxGraphModel dx="1386" dy="787" grid="1" gridSize="10" guides="1" tooltips="1" connect="1" arrows="1" fold="1" page="1" pageScale="1" pageWidth="1169" pageHeight="827" math="0" shadow="0">
            <root>
                <mxCell id="KJYG3omojn-DoQam58zE-0"/>
                <mxCell id="KJYG3omojn-DoQam58zE-1" parent="KJYG3omojn-DoQam58zE-0"/>
                <mxCell id="KJYG3omojn-DoQam58zE-2" value="" style="rounded=0;whiteSpace=wrap;html=1;fillColor=none;dashed=1;labelBackgroundColor=none;" vertex="1" parent="KJYG3omojn-DoQam58zE-1">
                    <mxGeometry x="160" y="40" width="1170" height="370" as="geometry"/>
                </mxCell>
                <mxCell id="KJYG3omojn-DoQam58zE-3" style="edgeStyle=orthogonalEdgeStyle;rounded=0;orthogonalLoop=1;jettySize=auto;html=1;dashed=1;labelBackgroundColor=none;" edge="1" parent="KJYG3omojn-DoQam58zE-1" source="KJYG3omojn-DoQam58zE-41" target="KJYG3omojn-DoQam58zE-25">
                    <mxGeometry relative="1" as="geometry"/>
                </mxCell>
                <mxCell id="KJYG3omojn-DoQam58zE-4" style="edgeStyle=orthogonalEdgeStyle;rounded=0;orthogonalLoop=1;jettySize=auto;html=1;endArrow=none;endFill=0;fillColor=#dae8fc;strokeColor=#6c8ebf;labelBackgroundColor=none;" edge="1" parent="KJYG3omojn-DoQam58zE-1" source="KJYG3omojn-DoQam58zE-41" target="KJYG3omojn-DoQam58zE-27">
                    <mxGeometry relative="1" as="geometry">
                        <Array as="points">
                            <mxPoint x="730" y="190"/>
                            <mxPoint x="730" y="190"/>
                        </Array>
                    </mxGeometry>
                </mxCell>
                <mxCell id="KJYG3omojn-DoQam58zE-5" value="Metric Data&lt;br&gt;Audit &amp;amp; Diagnostic Logs" style="edgeStyle=orthogonalEdgeStyle;rounded=0;orthogonalLoop=1;jettySize=auto;html=1;labelBackgroundColor=none;dashed=1;" edge="1" parent="KJYG3omojn-DoQam58zE-1" source="KJYG3omojn-DoQam58zE-41" target="KJYG3omojn-DoQam58zE-37">
                    <mxGeometry relative="1" as="geometry">
                        <Array as="points">
                            <mxPoint x="1110" y="125"/>
                            <mxPoint x="1110" y="125"/>
                        </Array>
                    </mxGeometry>
                </mxCell>
                <mxCell id="KJYG3omojn-DoQam58zE-6" style="edgeStyle=orthogonalEdgeStyle;rounded=0;orthogonalLoop=1;jettySize=auto;html=1;fillColor=#dae8fc;strokeColor=#6c8ebf;labelBackgroundColor=none;" edge="1" parent="KJYG3omojn-DoQam58zE-1" source="KJYG3omojn-DoQam58zE-9" target="KJYG3omojn-DoQam58zE-41">
                    <mxGeometry relative="1" as="geometry">
                        <Array as="points">
                            <mxPoint x="710" y="120"/>
                            <mxPoint x="710" y="120"/>
                        </Array>
                    </mxGeometry>
                </mxCell>
                <mxCell id="KJYG3omojn-DoQam58zE-7" style="edgeStyle=orthogonalEdgeStyle;rounded=0;orthogonalLoop=1;jettySize=auto;html=1;dashed=1;labelBackgroundColor=none;entryX=0.5;entryY=1;entryDx=0;entryDy=0;" edge="1" parent="KJYG3omojn-DoQam58zE-1" source="KJYG3omojn-DoQam58zE-9" target="KJYG3omojn-DoQam58zE-37">
                    <mxGeometry relative="1" as="geometry">
                        <mxPoint x="1250" y="300" as="targetPoint"/>
                        <Array as="points">
                            <mxPoint x="458" y="340"/>
                            <mxPoint x="1250" y="340"/>
                        </Array>
                    </mxGeometry>
                </mxCell>
                <mxCell id="KJYG3omojn-DoQam58zE-8" value="Diagnostic Logs &amp;amp; Metric Data" style="edgeLabel;html=1;align=center;verticalAlign=middle;resizable=0;points=[];labelBackgroundColor=none;" vertex="1" connectable="0" parent="KJYG3omojn-DoQam58zE-7">
                    <mxGeometry x="-0.561" relative="1" as="geometry">
                        <mxPoint x="6" y="-7" as="offset"/>
                    </mxGeometry>
                </mxCell>
                <mxCell id="KJYG3omojn-DoQam58zE-9" value="" style="rounded=0;whiteSpace=wrap;html=1;dashed=1;labelBackgroundColor=none;fillColor=#E6E6E6;strokeColor=none;" vertex="1" parent="KJYG3omojn-DoQam58zE-1">
                    <mxGeometry x="290" y="100.5" width="336" height="180" as="geometry"/>
                </mxCell>
                <mxCell id="KJYG3omojn-DoQam58zE-10" value="" style="rounded=0;whiteSpace=wrap;html=1;dashed=1;fillColor=#E6E6E6;strokeColor=none;labelBackgroundColor=none;" vertex="1" parent="KJYG3omojn-DoQam58zE-1">
                    <mxGeometry x="300" y="290" width="140" height="85" as="geometry"/>
                </mxCell>
                <mxCell id="KJYG3omojn-DoQam58zE-11" value="Azure Active Directory" style="aspect=fixed;html=1;points=[];align=center;image;fontSize=12;image=img/lib/azure2/identity/Azure_Active_Directory.svg;fontFamily=Helvetica;fontColor=default;strokeColor=none;fillColor=#00BEF2;labelPosition=center;verticalLabelPosition=top;verticalAlign=bottom;labelBackgroundColor=none;" vertex="1" parent="KJYG3omojn-DoQam58zE-1">
                    <mxGeometry x="49.75" y="20" width="62.5" height="70" as="geometry"/>
                </mxCell>
                <mxCell id="KJYG3omojn-DoQam58zE-12" value="DNS Lookup" style="edgeStyle=orthogonalEdgeStyle;rounded=0;orthogonalLoop=1;jettySize=auto;html=1;dashed=1;labelBackgroundColor=none;" edge="1" parent="KJYG3omojn-DoQam58zE-1" source="KJYG3omojn-DoQam58zE-15" target="KJYG3omojn-DoQam58zE-16">
                    <mxGeometry relative="1" as="geometry"/>
                </mxCell>
                <mxCell id="KJYG3omojn-DoQam58zE-13" value="Authentication" style="edgeStyle=orthogonalEdgeStyle;rounded=0;orthogonalLoop=1;jettySize=auto;html=1;dashed=1;labelBackgroundColor=none;" edge="1" parent="KJYG3omojn-DoQam58zE-1" source="KJYG3omojn-DoQam58zE-15" target="KJYG3omojn-DoQam58zE-11">
                    <mxGeometry relative="1" as="geometry"/>
                </mxCell>
                <mxCell id="KJYG3omojn-DoQam58zE-14" style="edgeStyle=orthogonalEdgeStyle;rounded=0;orthogonalLoop=1;jettySize=auto;html=1;fillColor=#dae8fc;strokeColor=#6c8ebf;labelBackgroundColor=none;" edge="1" parent="KJYG3omojn-DoQam58zE-1" source="KJYG3omojn-DoQam58zE-15" target="KJYG3omojn-DoQam58zE-18">
                    <mxGeometry relative="1" as="geometry"/>
                </mxCell>
                <mxCell id="KJYG3omojn-DoQam58zE-15" value="Internet" style="shape=image;html=1;verticalAlign=middle;verticalLabelPosition=middle;labelBackgroundColor=none;imageAspect=0;aspect=fixed;image=https://cdn4.iconfinder.com/data/icons/for-your-interface-free-samples/128/Globe-128.png;labelPosition=left;align=right;" vertex="1" parent="KJYG3omojn-DoQam58zE-1">
                    <mxGeometry x="47.25" y="171" width="65" height="65" as="geometry"/>
                </mxCell>
                <mxCell id="KJYG3omojn-DoQam58zE-16" value="Azure DNS" style="aspect=fixed;html=1;points=[];align=center;image;fontSize=12;image=img/lib/azure2/networking/DNS_Zones.svg;labelBackgroundColor=none;" vertex="1" parent="KJYG3omojn-DoQam58zE-1">
                    <mxGeometry x="55.63" y="330" width="48.25" height="48.25" as="geometry"/>
                </mxCell>
                <mxCell id="KJYG3omojn-DoQam58zE-17" style="edgeStyle=orthogonalEdgeStyle;rounded=0;orthogonalLoop=1;jettySize=auto;html=1;fillColor=#dae8fc;strokeColor=#6c8ebf;labelBackgroundColor=none;" edge="1" parent="KJYG3omojn-DoQam58zE-1" source="KJYG3omojn-DoQam58zE-18" target="KJYG3omojn-DoQam58zE-34">
                    <mxGeometry relative="1" as="geometry">
                        <Array as="points">
                            <mxPoint x="290" y="204"/>
                            <mxPoint x="290" y="204"/>
                        </Array>
                    </mxGeometry>
                </mxCell>
                <mxCell id="KJYG3omojn-DoQam58zE-18" value="Azure Front Door&lt;br&gt;WAF&lt;br&gt;CDN" style="aspect=fixed;html=1;points=[];align=center;image;fontSize=12;image=img/lib/azure2/networking/Front_Doors.svg;labelPosition=center;verticalLabelPosition=top;verticalAlign=bottom;labelBackgroundColor=none;" vertex="1" parent="KJYG3omojn-DoQam58zE-1">
                    <mxGeometry x="191" y="174" width="68" height="60" as="geometry"/>
                </mxCell>
                <mxCell id="KJYG3omojn-DoQam58zE-19" style="edgeStyle=orthogonalEdgeStyle;rounded=0;orthogonalLoop=1;jettySize=auto;html=1;fillColor=#dae8fc;strokeColor=#6c8ebf;labelBackgroundColor=none;" edge="1" parent="KJYG3omojn-DoQam58zE-1" source="KJYG3omojn-DoQam58zE-34" target="KJYG3omojn-DoQam58zE-21">
                    <mxGeometry relative="1" as="geometry">
                        <Array as="points">
                            <mxPoint x="410" y="204"/>
                            <mxPoint x="410" y="204"/>
                        </Array>
                    </mxGeometry>
                </mxCell>
                <mxCell id="KJYG3omojn-DoQam58zE-20" style="edgeStyle=orthogonalEdgeStyle;rounded=0;orthogonalLoop=1;jettySize=auto;html=1;fillColor=#dae8fc;strokeColor=#6c8ebf;labelBackgroundColor=none;" edge="1" parent="KJYG3omojn-DoQam58zE-1" source="KJYG3omojn-DoQam58zE-21" target="KJYG3omojn-DoQam58zE-31">
                    <mxGeometry relative="1" as="geometry">
                        <Array as="points">
                            <mxPoint x="520" y="204"/>
                            <mxPoint x="520" y="204"/>
                        </Array>
                    </mxGeometry>
                </mxCell>
                <mxCell id="KJYG3omojn-DoQam58zE-21" value="Queue" style="verticalLabelPosition=top;html=1;verticalAlign=bottom;align=center;strokeColor=none;fillColor=#00BEF2;shape=mxgraph.azure.storage_queue;labelPosition=center;labelBackgroundColor=none;" vertex="1" parent="KJYG3omojn-DoQam58zE-1">
                    <mxGeometry x="437" y="181.5" width="50" height="45" as="geometry"/>
                </mxCell>
                <mxCell id="KJYG3omojn-DoQam58zE-22" style="edgeStyle=orthogonalEdgeStyle;rounded=0;orthogonalLoop=1;jettySize=auto;html=1;fillColor=#dae8fc;strokeColor=#6c8ebf;labelBackgroundColor=none;" edge="1" parent="KJYG3omojn-DoQam58zE-1" source="KJYG3omojn-DoQam58zE-23" target="KJYG3omojn-DoQam58zE-18">
                    <mxGeometry relative="1" as="geometry"/>
                </mxCell>
                <mxCell id="KJYG3omojn-DoQam58zE-23" value="Blob" style="verticalLabelPosition=bottom;html=1;verticalAlign=top;align=center;strokeColor=none;fillColor=#00BEF2;shape=mxgraph.azure.storage_blob;labelBackgroundColor=none;" vertex="1" parent="KJYG3omojn-DoQam58zE-1">
                    <mxGeometry x="310" y="305" width="50" height="45" as="geometry"/>
                </mxCell>
                <mxCell id="KJYG3omojn-DoQam58zE-24" style="edgeStyle=orthogonalEdgeStyle;rounded=0;orthogonalLoop=1;jettySize=auto;html=1;fillColor=#dae8fc;strokeColor=#6c8ebf;labelBackgroundColor=none;" edge="1" parent="KJYG3omojn-DoQam58zE-1" source="KJYG3omojn-DoQam58zE-25" target="KJYG3omojn-DoQam58zE-9">
                    <mxGeometry relative="1" as="geometry">
                        <Array as="points">
                            <mxPoint x="680" y="264"/>
                            <mxPoint x="680" y="264"/>
                        </Array>
                    </mxGeometry>
                </mxCell>
                <mxCell id="KJYG3omojn-DoQam58zE-25" value="Azure Search" style="aspect=fixed;html=1;points=[];align=center;image;fontSize=12;image=img/lib/azure2/app_services/Search_Services.svg;labelBackgroundColor=none;" vertex="1" parent="KJYG3omojn-DoQam58zE-1">
                    <mxGeometry x="854" y="236" width="72" height="52" as="geometry"/>
                </mxCell>
                <mxCell id="KJYG3omojn-DoQam58zE-26" style="rounded=0;orthogonalLoop=1;jettySize=auto;html=1;edgeStyle=orthogonalEdgeStyle;fillColor=#dae8fc;strokeColor=#6c8ebf;labelBackgroundColor=none;" edge="1" parent="KJYG3omojn-DoQam58zE-1" source="KJYG3omojn-DoQam58zE-27" target="KJYG3omojn-DoQam58zE-9">
                    <mxGeometry relative="1" as="geometry">
                        <Array as="points">
                            <mxPoint x="640" y="190"/>
                            <mxPoint x="640" y="190"/>
                        </Array>
                    </mxGeometry>
                </mxCell>
                <mxCell id="KJYG3omojn-DoQam58zE-27" value="Redis Cache" style="aspect=fixed;html=1;points=[];align=center;image;fontSize=12;image=img/lib/azure2/databases/Cache_Redis.svg;labelBackgroundColor=none;" vertex="1" parent="KJYG3omojn-DoQam58zE-1">
                    <mxGeometry x="650" y="160" width="64" height="52" as="geometry"/>
                </mxCell>
                <mxCell id="KJYG3omojn-DoQam58zE-28" value="Static Content" style="aspect=fixed;html=1;points=[];align=center;image;fontSize=12;image=img/lib/azure2/general/File.svg;labelBackgroundColor=none;" vertex="1" parent="KJYG3omojn-DoQam58zE-1">
                    <mxGeometry x="379" y="305" width="36.51" height="45" as="geometry"/>
                </mxCell>
                <mxCell id="KJYG3omojn-DoQam58zE-29" value="Resource Group" style="aspect=fixed;html=1;points=[];align=center;image;fontSize=12;image=img/lib/azure2/general/Resource_Groups.svg;dashed=1;fillColor=none;labelBackgroundColor=none;" vertex="1" parent="KJYG3omojn-DoQam58zE-1">
                    <mxGeometry x="1340" y="720" width="30" height="28.24" as="geometry"/>
                </mxCell>
                <mxCell id="KJYG3omojn-DoQam58zE-30" value="" style="group;labelBackgroundColor=none;strokeColor=none;" vertex="1" connectable="0" parent="KJYG3omojn-DoQam58zE-1">
                    <mxGeometry x="525" y="111" width="90" height="159" as="geometry"/>
                </mxCell>
                <mxCell id="KJYG3omojn-DoQam58zE-31" value="" style="rounded=0;whiteSpace=wrap;html=1;dashed=1;labelBackgroundColor=none;fillColor=#FFFFFF;labelPosition=center;verticalLabelPosition=top;align=center;verticalAlign=bottom;spacingTop=0;spacingBottom=-35;strokeColor=none;" vertex="1" parent="KJYG3omojn-DoQam58zE-30">
                    <mxGeometry width="90" height="159" as="geometry"/>
                </mxCell>
                <mxCell id="KJYG3omojn-DoQam58zE-32" value="Function App" style="aspect=fixed;html=1;points=[];align=center;image;fontSize=12;image=img/lib/azure2/compute/Function_Apps.svg;labelPosition=center;verticalLabelPosition=top;verticalAlign=bottom;labelBackgroundColor=none;" vertex="1" parent="KJYG3omojn-DoQam58zE-30">
                    <mxGeometry x="11" y="83" width="68" height="60" as="geometry"/>
                </mxCell>
                <mxCell id="KJYG3omojn-DoQam58zE-33" value="" style="group;labelBackgroundColor=none;strokeColor=none;" vertex="1" connectable="0" parent="KJYG3omojn-DoQam58zE-1">
                    <mxGeometry x="303" y="111" width="90" height="159" as="geometry"/>
                </mxCell>
                <mxCell id="KJYG3omojn-DoQam58zE-34" value="App Service Plan" style="rounded=0;whiteSpace=wrap;html=1;dashed=1;labelBackgroundColor=none;fillColor=#FFFFFF;labelPosition=center;verticalLabelPosition=top;align=center;verticalAlign=bottom;spacingTop=0;spacingBottom=-35;strokeColor=none;" vertex="1" parent="KJYG3omojn-DoQam58zE-33">
                    <mxGeometry width="90" height="159" as="geometry"/>
                </mxCell>
                <mxCell id="KJYG3omojn-DoQam58zE-35" value="Web App" style="aspect=fixed;html=1;points=[];align=center;image;fontSize=12;image=img/lib/azure2/compute/App_Services.svg;labelPosition=center;verticalLabelPosition=top;verticalAlign=bottom;labelBackgroundColor=none;" vertex="1" parent="KJYG3omojn-DoQam58zE-33">
                    <mxGeometry x="13" y="81" width="64" height="64" as="geometry"/>
                </mxCell>
                <mxCell id="KJYG3omojn-DoQam58zE-36" value="" style="group;labelBackgroundColor=none;strokeColor=none;" vertex="1" connectable="0" parent="KJYG3omojn-DoQam58zE-1">
                    <mxGeometry x="1190" y="50" width="120" height="230" as="geometry"/>
                </mxCell>
                <mxCell id="KJYG3omojn-DoQam58zE-37" value="" style="rounded=0;whiteSpace=wrap;html=1;dashed=1;labelBackgroundColor=none;fillColor=#E6E6E6;strokeColor=none;" vertex="1" parent="KJYG3omojn-DoQam58zE-36">
                    <mxGeometry width="120" height="230" as="geometry"/>
                </mxCell>
                <mxCell id="KJYG3omojn-DoQam58zE-38" value="Azure Monitor" style="aspect=fixed;html=1;points=[];align=center;image;fontSize=12;image=img/lib/azure2/management_governance/Monitor.svg;dashed=1;labelBackgroundColor=none;fillColor=#FFFFFF;" vertex="1" parent="KJYG3omojn-DoQam58zE-36">
                    <mxGeometry x="28" y="15" width="64" height="64" as="geometry"/>
                </mxCell>
                <mxCell id="KJYG3omojn-DoQam58zE-39" value="Log Analytics" style="aspect=fixed;html=1;points=[];align=center;image;fontSize=12;image=img/lib/azure2/analytics/Log_Analytics_Workspaces.svg;dashed=1;labelBackgroundColor=none;fillColor=#FFFFFF;" vertex="1" parent="KJYG3omojn-DoQam58zE-36">
                    <mxGeometry x="28" y="120" width="64" height="64" as="geometry"/>
                </mxCell>
                <mxCell id="KJYG3omojn-DoQam58zE-40" value="" style="group;labelBackgroundColor=none;strokeColor=none;" vertex="1" connectable="0" parent="KJYG3omojn-DoQam58zE-1">
                    <mxGeometry x="740" y="50" width="300" height="150" as="geometry"/>
                </mxCell>
                <mxCell id="KJYG3omojn-DoQam58zE-41" value="" style="rounded=0;whiteSpace=wrap;html=1;dashed=1;labelBackgroundColor=none;fillColor=#E6E6E6;strokeColor=none;" vertex="1" parent="KJYG3omojn-DoQam58zE-40">
                    <mxGeometry width="300" height="150" as="geometry"/>
                </mxCell>
                <mxCell id="KJYG3omojn-DoQam58zE-42" value="Azure SQL Database" style="aspect=fixed;html=1;points=[];align=center;image;fontSize=12;image=img/lib/azure2/databases/SQL_Database.svg;labelBackgroundColor=none;" vertex="1" parent="KJYG3omojn-DoQam58zE-40">
                    <mxGeometry x="50" y="10" width="48" height="64" as="geometry"/>
                </mxCell>
                <mxCell id="KJYG3omojn-DoQam58zE-43" value="Azure Cosmos Database" style="aspect=fixed;html=1;points=[];align=center;image;fontSize=12;image=img/lib/azure2/databases/Azure_Cosmos_DB.svg;labelBackgroundColor=none;" vertex="1" parent="KJYG3omojn-DoQam58zE-40">
                    <mxGeometry x="190" y="10" width="64" height="64" as="geometry"/>
                </mxCell>
                <mxCell id="KJYG3omojn-DoQam58zE-44" style="edgeStyle=orthogonalEdgeStyle;rounded=0;orthogonalLoop=1;jettySize=auto;html=1;fillColor=#dae8fc;strokeColor=#6c8ebf;labelBackgroundColor=none;" edge="1" parent="KJYG3omojn-DoQam58zE-1">
                    <mxGeometry relative="1" as="geometry">
                        <Array as="points">
                            <mxPoint x="237" y="590"/>
                            <mxPoint x="237" y="590"/>
                        </Array>
                        <mxPoint x="220" y="590" as="sourcePoint"/>
                        <mxPoint x="264" y="590" as="targetPoint"/>
                    </mxGeometry>
                </mxCell>
                <mxCell id="KJYG3omojn-DoQam58zE-45" style="edgeStyle=orthogonalEdgeStyle;rounded=0;orthogonalLoop=1;jettySize=auto;html=1;fillColor=#dae8fc;strokeColor=#6c8ebf;labelBackgroundColor=none;" edge="1" parent="KJYG3omojn-DoQam58zE-1">
                    <mxGeometry relative="1" as="geometry">
                        <Array as="points">
                            <mxPoint x="203" y="560"/>
                            <mxPoint x="203" y="560"/>
                        </Array>
                        <mxPoint x="170" y="560" as="sourcePoint"/>
                        <mxPoint x="208" y="560" as="targetPoint"/>
                    </mxGeometry>
                </mxCell>
                <mxCell id="KJYG3omojn-DoQam58zE-46" value="" style="sketch=0;aspect=fixed;html=1;points=[];align=center;image;fontSize=12;image=img/lib/mscae/DNS.svg;dashed=1;labelBackgroundColor=none;fillStyle=dots;strokeColor=#007FFF;fillColor=none;" vertex="1" parent="KJYG3omojn-DoQam58zE-1">
                    <mxGeometry x="1530" y="550" width="50" height="50" as="geometry"/>
                </mxCell>
                <mxCell id="KJYG3omojn-DoQam58zE-47" value="" style="sketch=0;aspect=fixed;html=1;points=[];align=center;image;fontSize=12;image=img/lib/mscae/DNS_Private_Zones.svg;dashed=1;labelBackgroundColor=none;fillStyle=dots;strokeColor=#007FFF;fillColor=none;" vertex="1" parent="KJYG3omojn-DoQam58zE-1">
                    <mxGeometry x="1480" y="360" width="50" height="50" as="geometry"/>
                </mxCell>
                <mxCell id="KJYG3omojn-DoQam58zE-48" value="" style="group" vertex="1" connectable="0" parent="KJYG3omojn-DoQam58zE-1">
                    <mxGeometry x="590" y="515" width="500" height="265" as="geometry"/>
                </mxCell>
                <mxCell id="KJYG3omojn-DoQam58zE-49" value="OnPremise&lt;br&gt;10.0.2.0/24" style="rounded=0;whiteSpace=wrap;html=1;dashed=1;labelBackgroundColor=none;fillStyle=dots;strokeColor=#001DBC;fillColor=none;verticalAlign=bottom;align=left;fontColor=#ffffff;" vertex="1" parent="KJYG3omojn-DoQam58zE-48">
                    <mxGeometry x="36" width="464" height="265" as="geometry"/>
                </mxCell>
                <mxCell id="KJYG3omojn-DoQam58zE-50" value="VNet" style="aspect=fixed;html=1;points=[];align=center;image;fontSize=12;image=img/lib/azure2/networking/Virtual_Networks.svg;" vertex="1" parent="KJYG3omojn-DoQam58zE-48">
                    <mxGeometry x="430" y="10" width="67" height="40" as="geometry"/>
                </mxCell>
                <mxCell id="KJYG3omojn-DoQam58zE-51" value="" style="aspect=fixed;html=1;points=[];align=center;image;fontSize=12;image=img/lib/azure2/networking/DNS_Zones.svg;dashed=1;labelBackgroundColor=none;fillStyle=dots;strokeColor=#007FFF;fillColor=none;" vertex="1" parent="KJYG3omojn-DoQam58zE-48">
                    <mxGeometry y="95" width="60" height="60" as="geometry"/>
                </mxCell>
                <mxCell id="KJYG3omojn-DoQam58zE-52" value="Private subnet-VMSubnet" style="points=[[0,0],[0.25,0],[0.5,0],[0.75,0],[1,0],[1,0.25],[1,0.5],[1,0.75],[1,1],[0.75,1],[0.5,1],[0.25,1],[0,1],[0,0.75],[0,0.5],[0,0.25]];outlineConnect=0;gradientColor=none;html=1;whiteSpace=wrap;fontSize=12;fontStyle=0;container=1;pointerEvents=0;collapsible=0;recursiveResize=0;shape=mxgraph.aws4.group;grIcon=mxgraph.aws4.group_security_group;grStroke=0;strokeColor=#147EBA;fillColor=#E6F2F8;verticalAlign=top;align=left;spacingLeft=30;fontColor=#147EBA;dashed=0;labelBackgroundColor=none;fillStyle=dots;" vertex="1" parent="KJYG3omojn-DoQam58zE-48">
                    <mxGeometry x="60" y="55" width="310" height="197.5" as="geometry"/>
                </mxCell>
                <mxCell id="KJYG3omojn-DoQam58zE-53" value="vm01&lt;br&gt;Ubuntu 22.04&amp;nbsp;" style="aspect=fixed;html=1;points=[];align=center;image;fontSize=12;image=img/lib/azure2/compute/Virtual_Machine.svg;labelBackgroundColor=none;" vertex="1" parent="KJYG3omojn-DoQam58zE-52">
                    <mxGeometry x="220" y="60" width="69" height="64" as="geometry"/>
                </mxCell>
                <mxCell id="KJYG3omojn-DoQam58zE-54" value="DNS Server&lt;br&gt;Windows Server 2019" style="aspect=fixed;html=1;points=[];align=center;image;fontSize=12;image=img/lib/azure2/compute/Virtual_Machine.svg;labelBackgroundColor=none;" vertex="1" parent="KJYG3omojn-DoQam58zE-52">
                    <mxGeometry x="50" y="60" width="69" height="64" as="geometry"/>
                </mxCell>
            </root>
        </mxGraphModel>
    </diagram>
</mxfile>